# xmcd
#
# Track frame offsets:
#	150
#	13978
#	21868
#	34495
#	48209
#	55006
#	63547
#	80629
#	95476
#	101719
#	116162
#	128502
#	141745
#	158411
#	183067
#
# Disc length: 2624 seconds
#
# Revision: 0
# Processed by: cddbd v1.5.2PL0 Copyright (c) Steve Scherf et al.
# Submitted via: audiograbber 1.83.01
#
DISCID=cc0a3e0f
DTITLE=Whiskeyjacks - Old Vancouver Town
DYEAR=2007
DGENRE=Bluegrass
TTITLE0=Big Boss Man
TTITLE1=Jacob Jackson Jr.
TTITLE2=Union Hall
TTITLE3=Sad to See Them Go
TTITLE4=Rag in C
TTITLE5=Salty Dog
TTITLE6=The Corners of Down and Out
TTITLE7=War Cry
TTITLE8=The Whiskeyjack Rag
TTITLE9=Deep Ellum
TTITLE10=My Beer is Union Made
TTITLE11=Danny
TTITLE12=Gambling Man
TTITLE13=Cocaine
TTITLE14=Now That I'm Dying
EXTD=
EXTT0=
EXTT1=
EXTT2=
EXTT3=
EXTT4=
EXTT5=
EXTT6=
EXTT7=
EXTT8=
EXTT9=
EXTT10=
EXTT11=
EXTT12=
EXTT13=
EXTT14=
PLAYORDER=
